M48
; DRILL file {KiCad 8.0.5} date 2024-10-04T14:56:27-0700
; FORMAT={-:-/ absolute / inch / decimal}
; #@! TF.CreationDate,2024-10-04T14:56:27-07:00
; #@! TF.GenerationSoftware,Kicad,Pcbnew,8.0.5
; #@! TF.FileFunction,Plated,1,2,PTH
FMAT,2
INCH
; #@! TA.AperFunction,Plated,PTH,ViaDrill
T1C0.0118
; #@! TA.AperFunction,Plated,PTH,ComponentDrill
T2C0.0394
%
G90
G05
T1
X5.1625Y-5.6125
X5.21Y-6.04
X5.26Y-5.79
X5.26Y-5.96
X5.29Y-5.41
X5.45Y-5.42
X5.5Y-5.63
X5.61Y-5.45
X5.84Y-6.04
T2
X5.1Y-5.2125
X5.1Y-5.3125
X5.1Y-5.4125
X5.1Y-5.5125
X5.1Y-5.6125
X5.1Y-5.7125
X5.1Y-5.8125
X5.1Y-5.9125
X6.0Y-5.2125
X6.0Y-5.3125
X6.0Y-5.4125
X6.0Y-5.5125
X6.0Y-5.6125
X6.0Y-5.7125
X6.0Y-5.8125
X6.0Y-5.9125
M30
