%TF.GenerationSoftware,KiCad,Pcbnew,8.0.5*%
%TF.CreationDate,2024-10-04T14:56:02-07:00*%
%TF.ProjectId,TempSensorPCB,54656d70-5365-46e7-936f-725043422e6b,v01*%
%TF.SameCoordinates,Original*%
%TF.FileFunction,Legend,Top*%
%TF.FilePolarity,Positive*%
%FSLAX46Y46*%
G04 Gerber Fmt 4.6, Leading zero omitted, Abs format (unit mm)*
G04 Created by KiCad (PCBNEW 8.0.5) date 2024-10-04 14:56:02*
%MOMM*%
%LPD*%
G01*
G04 APERTURE LIST*
%ADD10C,0.152400*%
%ADD11C,0.150000*%
%ADD12C,0.129540*%
%ADD13C,0.120000*%
%ADD14C,0.100000*%
G04 APERTURE END LIST*
D10*
X131434072Y-127393694D02*
X131434072Y-128107979D01*
X131434072Y-128107979D02*
X131386453Y-128250836D01*
X131386453Y-128250836D02*
X131291215Y-128346075D01*
X131291215Y-128346075D02*
X131148358Y-128393694D01*
X131148358Y-128393694D02*
X131053120Y-128393694D01*
X132053120Y-128393694D02*
X131957882Y-128346075D01*
X131957882Y-128346075D02*
X131910263Y-128298455D01*
X131910263Y-128298455D02*
X131862644Y-128203217D01*
X131862644Y-128203217D02*
X131862644Y-127917503D01*
X131862644Y-127917503D02*
X131910263Y-127822265D01*
X131910263Y-127822265D02*
X131957882Y-127774646D01*
X131957882Y-127774646D02*
X132053120Y-127727027D01*
X132053120Y-127727027D02*
X132195977Y-127727027D01*
X132195977Y-127727027D02*
X132291215Y-127774646D01*
X132291215Y-127774646D02*
X132338834Y-127822265D01*
X132338834Y-127822265D02*
X132386453Y-127917503D01*
X132386453Y-127917503D02*
X132386453Y-128203217D01*
X132386453Y-128203217D02*
X132338834Y-128298455D01*
X132338834Y-128298455D02*
X132291215Y-128346075D01*
X132291215Y-128346075D02*
X132195977Y-128393694D01*
X132195977Y-128393694D02*
X132053120Y-128393694D01*
X132767406Y-128346075D02*
X132862644Y-128393694D01*
X132862644Y-128393694D02*
X133053120Y-128393694D01*
X133053120Y-128393694D02*
X133148358Y-128346075D01*
X133148358Y-128346075D02*
X133195977Y-128250836D01*
X133195977Y-128250836D02*
X133195977Y-128203217D01*
X133195977Y-128203217D02*
X133148358Y-128107979D01*
X133148358Y-128107979D02*
X133053120Y-128060360D01*
X133053120Y-128060360D02*
X132910263Y-128060360D01*
X132910263Y-128060360D02*
X132815025Y-128012741D01*
X132815025Y-128012741D02*
X132767406Y-127917503D01*
X132767406Y-127917503D02*
X132767406Y-127869884D01*
X132767406Y-127869884D02*
X132815025Y-127774646D01*
X132815025Y-127774646D02*
X132910263Y-127727027D01*
X132910263Y-127727027D02*
X133053120Y-127727027D01*
X133053120Y-127727027D02*
X133148358Y-127774646D01*
X134005501Y-128346075D02*
X133910263Y-128393694D01*
X133910263Y-128393694D02*
X133719787Y-128393694D01*
X133719787Y-128393694D02*
X133624549Y-128346075D01*
X133624549Y-128346075D02*
X133576930Y-128250836D01*
X133576930Y-128250836D02*
X133576930Y-127869884D01*
X133576930Y-127869884D02*
X133624549Y-127774646D01*
X133624549Y-127774646D02*
X133719787Y-127727027D01*
X133719787Y-127727027D02*
X133910263Y-127727027D01*
X133910263Y-127727027D02*
X134005501Y-127774646D01*
X134005501Y-127774646D02*
X134053120Y-127869884D01*
X134053120Y-127869884D02*
X134053120Y-127965122D01*
X134053120Y-127965122D02*
X133576930Y-128060360D01*
X134481692Y-127727027D02*
X134481692Y-128727027D01*
X134481692Y-127774646D02*
X134576930Y-127727027D01*
X134576930Y-127727027D02*
X134767406Y-127727027D01*
X134767406Y-127727027D02*
X134862644Y-127774646D01*
X134862644Y-127774646D02*
X134910263Y-127822265D01*
X134910263Y-127822265D02*
X134957882Y-127917503D01*
X134957882Y-127917503D02*
X134957882Y-128203217D01*
X134957882Y-128203217D02*
X134910263Y-128298455D01*
X134910263Y-128298455D02*
X134862644Y-128346075D01*
X134862644Y-128346075D02*
X134767406Y-128393694D01*
X134767406Y-128393694D02*
X134576930Y-128393694D01*
X134576930Y-128393694D02*
X134481692Y-128346075D01*
X135386454Y-128393694D02*
X135386454Y-127393694D01*
X135815025Y-128393694D02*
X135815025Y-127869884D01*
X135815025Y-127869884D02*
X135767406Y-127774646D01*
X135767406Y-127774646D02*
X135672168Y-127727027D01*
X135672168Y-127727027D02*
X135529311Y-127727027D01*
X135529311Y-127727027D02*
X135434073Y-127774646D01*
X135434073Y-127774646D02*
X135386454Y-127822265D01*
X137005502Y-128107979D02*
X137481692Y-128107979D01*
X136910264Y-128393694D02*
X137243597Y-127393694D01*
X137243597Y-127393694D02*
X137576930Y-128393694D01*
X137910264Y-128393694D02*
X137910264Y-127393694D01*
X137910264Y-127774646D02*
X138005502Y-127727027D01*
X138005502Y-127727027D02*
X138195978Y-127727027D01*
X138195978Y-127727027D02*
X138291216Y-127774646D01*
X138291216Y-127774646D02*
X138338835Y-127822265D01*
X138338835Y-127822265D02*
X138386454Y-127917503D01*
X138386454Y-127917503D02*
X138386454Y-128203217D01*
X138386454Y-128203217D02*
X138338835Y-128298455D01*
X138338835Y-128298455D02*
X138291216Y-128346075D01*
X138291216Y-128346075D02*
X138195978Y-128393694D01*
X138195978Y-128393694D02*
X138005502Y-128393694D01*
X138005502Y-128393694D02*
X137910264Y-128346075D01*
X139243597Y-128393694D02*
X139243597Y-127393694D01*
X139243597Y-128346075D02*
X139148359Y-128393694D01*
X139148359Y-128393694D02*
X138957883Y-128393694D01*
X138957883Y-128393694D02*
X138862645Y-128346075D01*
X138862645Y-128346075D02*
X138815026Y-128298455D01*
X138815026Y-128298455D02*
X138767407Y-128203217D01*
X138767407Y-128203217D02*
X138767407Y-127917503D01*
X138767407Y-127917503D02*
X138815026Y-127822265D01*
X138815026Y-127822265D02*
X138862645Y-127774646D01*
X138862645Y-127774646D02*
X138957883Y-127727027D01*
X138957883Y-127727027D02*
X139148359Y-127727027D01*
X139148359Y-127727027D02*
X139243597Y-127774646D01*
X140100740Y-128346075D02*
X140005502Y-128393694D01*
X140005502Y-128393694D02*
X139815026Y-128393694D01*
X139815026Y-128393694D02*
X139719788Y-128346075D01*
X139719788Y-128346075D02*
X139672169Y-128250836D01*
X139672169Y-128250836D02*
X139672169Y-127869884D01*
X139672169Y-127869884D02*
X139719788Y-127774646D01*
X139719788Y-127774646D02*
X139815026Y-127727027D01*
X139815026Y-127727027D02*
X140005502Y-127727027D01*
X140005502Y-127727027D02*
X140100740Y-127774646D01*
X140100740Y-127774646D02*
X140148359Y-127869884D01*
X140148359Y-127869884D02*
X140148359Y-127965122D01*
X140148359Y-127965122D02*
X139672169Y-128060360D01*
X140719788Y-128393694D02*
X140624550Y-128346075D01*
X140624550Y-128346075D02*
X140576931Y-128250836D01*
X140576931Y-128250836D02*
X140576931Y-127393694D01*
X141100741Y-128393694D02*
X141100741Y-127727027D01*
X141100741Y-127822265D02*
X141148360Y-127774646D01*
X141148360Y-127774646D02*
X141243598Y-127727027D01*
X141243598Y-127727027D02*
X141386455Y-127727027D01*
X141386455Y-127727027D02*
X141481693Y-127774646D01*
X141481693Y-127774646D02*
X141529312Y-127869884D01*
X141529312Y-127869884D02*
X141529312Y-128393694D01*
X141529312Y-127869884D02*
X141576931Y-127774646D01*
X141576931Y-127774646D02*
X141672169Y-127727027D01*
X141672169Y-127727027D02*
X141815026Y-127727027D01*
X141815026Y-127727027D02*
X141910265Y-127774646D01*
X141910265Y-127774646D02*
X141957884Y-127869884D01*
X141957884Y-127869884D02*
X141957884Y-128393694D01*
X142862645Y-128393694D02*
X142862645Y-127869884D01*
X142862645Y-127869884D02*
X142815026Y-127774646D01*
X142815026Y-127774646D02*
X142719788Y-127727027D01*
X142719788Y-127727027D02*
X142529312Y-127727027D01*
X142529312Y-127727027D02*
X142434074Y-127774646D01*
X142862645Y-128346075D02*
X142767407Y-128393694D01*
X142767407Y-128393694D02*
X142529312Y-128393694D01*
X142529312Y-128393694D02*
X142434074Y-128346075D01*
X142434074Y-128346075D02*
X142386455Y-128250836D01*
X142386455Y-128250836D02*
X142386455Y-128155598D01*
X142386455Y-128155598D02*
X142434074Y-128060360D01*
X142434074Y-128060360D02*
X142529312Y-128012741D01*
X142529312Y-128012741D02*
X142767407Y-128012741D01*
X142767407Y-128012741D02*
X142862645Y-127965122D01*
X143481693Y-128393694D02*
X143386455Y-128346075D01*
X143386455Y-128346075D02*
X143338836Y-128250836D01*
X143338836Y-128250836D02*
X143338836Y-127393694D01*
X144243598Y-128346075D02*
X144148360Y-128393694D01*
X144148360Y-128393694D02*
X143957884Y-128393694D01*
X143957884Y-128393694D02*
X143862646Y-128346075D01*
X143862646Y-128346075D02*
X143815027Y-128250836D01*
X143815027Y-128250836D02*
X143815027Y-127869884D01*
X143815027Y-127869884D02*
X143862646Y-127774646D01*
X143862646Y-127774646D02*
X143957884Y-127727027D01*
X143957884Y-127727027D02*
X144148360Y-127727027D01*
X144148360Y-127727027D02*
X144243598Y-127774646D01*
X144243598Y-127774646D02*
X144291217Y-127869884D01*
X144291217Y-127869884D02*
X144291217Y-127965122D01*
X144291217Y-127965122D02*
X143815027Y-128060360D01*
X144719789Y-128393694D02*
X144719789Y-127393694D01*
X144815027Y-128012741D02*
X145100741Y-128393694D01*
X145100741Y-127727027D02*
X144719789Y-128107979D01*
X145576932Y-127393694D02*
X145481694Y-127584170D01*
X145957884Y-128346075D02*
X146053122Y-128393694D01*
X146053122Y-128393694D02*
X146243598Y-128393694D01*
X146243598Y-128393694D02*
X146338836Y-128346075D01*
X146338836Y-128346075D02*
X146386455Y-128250836D01*
X146386455Y-128250836D02*
X146386455Y-128203217D01*
X146386455Y-128203217D02*
X146338836Y-128107979D01*
X146338836Y-128107979D02*
X146243598Y-128060360D01*
X146243598Y-128060360D02*
X146100741Y-128060360D01*
X146100741Y-128060360D02*
X146005503Y-128012741D01*
X146005503Y-128012741D02*
X145957884Y-127917503D01*
X145957884Y-127917503D02*
X145957884Y-127869884D01*
X145957884Y-127869884D02*
X146005503Y-127774646D01*
X146005503Y-127774646D02*
X146100741Y-127727027D01*
X146100741Y-127727027D02*
X146243598Y-127727027D01*
X146243598Y-127727027D02*
X146338836Y-127774646D01*
X147576932Y-128393694D02*
X147576932Y-127393694D01*
X147576932Y-127393694D02*
X147957884Y-127393694D01*
X147957884Y-127393694D02*
X148053122Y-127441313D01*
X148053122Y-127441313D02*
X148100741Y-127488932D01*
X148100741Y-127488932D02*
X148148360Y-127584170D01*
X148148360Y-127584170D02*
X148148360Y-127727027D01*
X148148360Y-127727027D02*
X148100741Y-127822265D01*
X148100741Y-127822265D02*
X148053122Y-127869884D01*
X148053122Y-127869884D02*
X147957884Y-127917503D01*
X147957884Y-127917503D02*
X147576932Y-127917503D01*
X149148360Y-128298455D02*
X149100741Y-128346075D01*
X149100741Y-128346075D02*
X148957884Y-128393694D01*
X148957884Y-128393694D02*
X148862646Y-128393694D01*
X148862646Y-128393694D02*
X148719789Y-128346075D01*
X148719789Y-128346075D02*
X148624551Y-128250836D01*
X148624551Y-128250836D02*
X148576932Y-128155598D01*
X148576932Y-128155598D02*
X148529313Y-127965122D01*
X148529313Y-127965122D02*
X148529313Y-127822265D01*
X148529313Y-127822265D02*
X148576932Y-127631789D01*
X148576932Y-127631789D02*
X148624551Y-127536551D01*
X148624551Y-127536551D02*
X148719789Y-127441313D01*
X148719789Y-127441313D02*
X148862646Y-127393694D01*
X148862646Y-127393694D02*
X148957884Y-127393694D01*
X148957884Y-127393694D02*
X149100741Y-127441313D01*
X149100741Y-127441313D02*
X149148360Y-127488932D01*
X149910265Y-127869884D02*
X150053122Y-127917503D01*
X150053122Y-127917503D02*
X150100741Y-127965122D01*
X150100741Y-127965122D02*
X150148360Y-128060360D01*
X150148360Y-128060360D02*
X150148360Y-128203217D01*
X150148360Y-128203217D02*
X150100741Y-128298455D01*
X150100741Y-128298455D02*
X150053122Y-128346075D01*
X150053122Y-128346075D02*
X149957884Y-128393694D01*
X149957884Y-128393694D02*
X149576932Y-128393694D01*
X149576932Y-128393694D02*
X149576932Y-127393694D01*
X149576932Y-127393694D02*
X149910265Y-127393694D01*
X149910265Y-127393694D02*
X150005503Y-127441313D01*
X150005503Y-127441313D02*
X150053122Y-127488932D01*
X150053122Y-127488932D02*
X150100741Y-127584170D01*
X150100741Y-127584170D02*
X150100741Y-127679408D01*
X150100741Y-127679408D02*
X150053122Y-127774646D01*
X150053122Y-127774646D02*
X150005503Y-127822265D01*
X150005503Y-127822265D02*
X149910265Y-127869884D01*
X149910265Y-127869884D02*
X149576932Y-127869884D01*
D11*
X138639405Y-141649819D02*
X138639405Y-140649819D01*
X138639405Y-140649819D02*
X138877500Y-140649819D01*
X138877500Y-140649819D02*
X139020357Y-140697438D01*
X139020357Y-140697438D02*
X139115595Y-140792676D01*
X139115595Y-140792676D02*
X139163214Y-140887914D01*
X139163214Y-140887914D02*
X139210833Y-141078390D01*
X139210833Y-141078390D02*
X139210833Y-141221247D01*
X139210833Y-141221247D02*
X139163214Y-141411723D01*
X139163214Y-141411723D02*
X139115595Y-141506961D01*
X139115595Y-141506961D02*
X139020357Y-141602200D01*
X139020357Y-141602200D02*
X138877500Y-141649819D01*
X138877500Y-141649819D02*
X138639405Y-141649819D01*
X139544167Y-140649819D02*
X140163214Y-140649819D01*
X140163214Y-140649819D02*
X139829881Y-141030771D01*
X139829881Y-141030771D02*
X139972738Y-141030771D01*
X139972738Y-141030771D02*
X140067976Y-141078390D01*
X140067976Y-141078390D02*
X140115595Y-141126009D01*
X140115595Y-141126009D02*
X140163214Y-141221247D01*
X140163214Y-141221247D02*
X140163214Y-141459342D01*
X140163214Y-141459342D02*
X140115595Y-141554580D01*
X140115595Y-141554580D02*
X140067976Y-141602200D01*
X140067976Y-141602200D02*
X139972738Y-141649819D01*
X139972738Y-141649819D02*
X139687024Y-141649819D01*
X139687024Y-141649819D02*
X139591786Y-141602200D01*
X139591786Y-141602200D02*
X139544167Y-141554580D01*
X138639405Y-146442819D02*
X138639405Y-145442819D01*
X138639405Y-145442819D02*
X138877500Y-145442819D01*
X138877500Y-145442819D02*
X139020357Y-145490438D01*
X139020357Y-145490438D02*
X139115595Y-145585676D01*
X139115595Y-145585676D02*
X139163214Y-145680914D01*
X139163214Y-145680914D02*
X139210833Y-145871390D01*
X139210833Y-145871390D02*
X139210833Y-146014247D01*
X139210833Y-146014247D02*
X139163214Y-146204723D01*
X139163214Y-146204723D02*
X139115595Y-146299961D01*
X139115595Y-146299961D02*
X139020357Y-146395200D01*
X139020357Y-146395200D02*
X138877500Y-146442819D01*
X138877500Y-146442819D02*
X138639405Y-146442819D01*
X140067976Y-145776152D02*
X140067976Y-146442819D01*
X139829881Y-145395200D02*
X139591786Y-146109485D01*
X139591786Y-146109485D02*
X140210833Y-146109485D01*
X149081833Y-150314819D02*
X148748500Y-149838628D01*
X148510405Y-150314819D02*
X148510405Y-149314819D01*
X148510405Y-149314819D02*
X148891357Y-149314819D01*
X148891357Y-149314819D02*
X148986595Y-149362438D01*
X148986595Y-149362438D02*
X149034214Y-149410057D01*
X149034214Y-149410057D02*
X149081833Y-149505295D01*
X149081833Y-149505295D02*
X149081833Y-149648152D01*
X149081833Y-149648152D02*
X149034214Y-149743390D01*
X149034214Y-149743390D02*
X148986595Y-149791009D01*
X148986595Y-149791009D02*
X148891357Y-149838628D01*
X148891357Y-149838628D02*
X148510405Y-149838628D01*
X149986595Y-149314819D02*
X149510405Y-149314819D01*
X149510405Y-149314819D02*
X149462786Y-149791009D01*
X149462786Y-149791009D02*
X149510405Y-149743390D01*
X149510405Y-149743390D02*
X149605643Y-149695771D01*
X149605643Y-149695771D02*
X149843738Y-149695771D01*
X149843738Y-149695771D02*
X149938976Y-149743390D01*
X149938976Y-149743390D02*
X149986595Y-149791009D01*
X149986595Y-149791009D02*
X150034214Y-149886247D01*
X150034214Y-149886247D02*
X150034214Y-150124342D01*
X150034214Y-150124342D02*
X149986595Y-150219580D01*
X149986595Y-150219580D02*
X149938976Y-150267200D01*
X149938976Y-150267200D02*
X149843738Y-150314819D01*
X149843738Y-150314819D02*
X149605643Y-150314819D01*
X149605643Y-150314819D02*
X149510405Y-150267200D01*
X149510405Y-150267200D02*
X149462786Y-150219580D01*
X129206666Y-129082319D02*
X129206666Y-129796604D01*
X129206666Y-129796604D02*
X129159047Y-129939461D01*
X129159047Y-129939461D02*
X129063809Y-130034700D01*
X129063809Y-130034700D02*
X128920952Y-130082319D01*
X128920952Y-130082319D02*
X128825714Y-130082319D01*
X130206666Y-130082319D02*
X129635238Y-130082319D01*
X129920952Y-130082319D02*
X129920952Y-129082319D01*
X129920952Y-129082319D02*
X129825714Y-129225176D01*
X129825714Y-129225176D02*
X129730476Y-129320414D01*
X129730476Y-129320414D02*
X129635238Y-129368033D01*
X149081833Y-136979819D02*
X148748500Y-136503628D01*
X148510405Y-136979819D02*
X148510405Y-135979819D01*
X148510405Y-135979819D02*
X148891357Y-135979819D01*
X148891357Y-135979819D02*
X148986595Y-136027438D01*
X148986595Y-136027438D02*
X149034214Y-136075057D01*
X149034214Y-136075057D02*
X149081833Y-136170295D01*
X149081833Y-136170295D02*
X149081833Y-136313152D01*
X149081833Y-136313152D02*
X149034214Y-136408390D01*
X149034214Y-136408390D02*
X148986595Y-136456009D01*
X148986595Y-136456009D02*
X148891357Y-136503628D01*
X148891357Y-136503628D02*
X148510405Y-136503628D01*
X149462786Y-136075057D02*
X149510405Y-136027438D01*
X149510405Y-136027438D02*
X149605643Y-135979819D01*
X149605643Y-135979819D02*
X149843738Y-135979819D01*
X149843738Y-135979819D02*
X149938976Y-136027438D01*
X149938976Y-136027438D02*
X149986595Y-136075057D01*
X149986595Y-136075057D02*
X150034214Y-136170295D01*
X150034214Y-136170295D02*
X150034214Y-136265533D01*
X150034214Y-136265533D02*
X149986595Y-136408390D01*
X149986595Y-136408390D02*
X149415167Y-136979819D01*
X149415167Y-136979819D02*
X150034214Y-136979819D01*
X149081833Y-146127819D02*
X148748500Y-145651628D01*
X148510405Y-146127819D02*
X148510405Y-145127819D01*
X148510405Y-145127819D02*
X148891357Y-145127819D01*
X148891357Y-145127819D02*
X148986595Y-145175438D01*
X148986595Y-145175438D02*
X149034214Y-145223057D01*
X149034214Y-145223057D02*
X149081833Y-145318295D01*
X149081833Y-145318295D02*
X149081833Y-145461152D01*
X149081833Y-145461152D02*
X149034214Y-145556390D01*
X149034214Y-145556390D02*
X148986595Y-145604009D01*
X148986595Y-145604009D02*
X148891357Y-145651628D01*
X148891357Y-145651628D02*
X148510405Y-145651628D01*
X149938976Y-145461152D02*
X149938976Y-146127819D01*
X149700881Y-145080200D02*
X149462786Y-145794485D01*
X149462786Y-145794485D02*
X150081833Y-145794485D01*
X138639405Y-150719819D02*
X138639405Y-149719819D01*
X138639405Y-149719819D02*
X138877500Y-149719819D01*
X138877500Y-149719819D02*
X139020357Y-149767438D01*
X139020357Y-149767438D02*
X139115595Y-149862676D01*
X139115595Y-149862676D02*
X139163214Y-149957914D01*
X139163214Y-149957914D02*
X139210833Y-150148390D01*
X139210833Y-150148390D02*
X139210833Y-150291247D01*
X139210833Y-150291247D02*
X139163214Y-150481723D01*
X139163214Y-150481723D02*
X139115595Y-150576961D01*
X139115595Y-150576961D02*
X139020357Y-150672200D01*
X139020357Y-150672200D02*
X138877500Y-150719819D01*
X138877500Y-150719819D02*
X138639405Y-150719819D01*
X140115595Y-149719819D02*
X139639405Y-149719819D01*
X139639405Y-149719819D02*
X139591786Y-150196009D01*
X139591786Y-150196009D02*
X139639405Y-150148390D01*
X139639405Y-150148390D02*
X139734643Y-150100771D01*
X139734643Y-150100771D02*
X139972738Y-150100771D01*
X139972738Y-150100771D02*
X140067976Y-150148390D01*
X140067976Y-150148390D02*
X140115595Y-150196009D01*
X140115595Y-150196009D02*
X140163214Y-150291247D01*
X140163214Y-150291247D02*
X140163214Y-150529342D01*
X140163214Y-150529342D02*
X140115595Y-150624580D01*
X140115595Y-150624580D02*
X140067976Y-150672200D01*
X140067976Y-150672200D02*
X139972738Y-150719819D01*
X139972738Y-150719819D02*
X139734643Y-150719819D01*
X139734643Y-150719819D02*
X139639405Y-150672200D01*
X139639405Y-150672200D02*
X139591786Y-150624580D01*
X149081833Y-141424819D02*
X148748500Y-140948628D01*
X148510405Y-141424819D02*
X148510405Y-140424819D01*
X148510405Y-140424819D02*
X148891357Y-140424819D01*
X148891357Y-140424819D02*
X148986595Y-140472438D01*
X148986595Y-140472438D02*
X149034214Y-140520057D01*
X149034214Y-140520057D02*
X149081833Y-140615295D01*
X149081833Y-140615295D02*
X149081833Y-140758152D01*
X149081833Y-140758152D02*
X149034214Y-140853390D01*
X149034214Y-140853390D02*
X148986595Y-140901009D01*
X148986595Y-140901009D02*
X148891357Y-140948628D01*
X148891357Y-140948628D02*
X148510405Y-140948628D01*
X149415167Y-140424819D02*
X150034214Y-140424819D01*
X150034214Y-140424819D02*
X149700881Y-140805771D01*
X149700881Y-140805771D02*
X149843738Y-140805771D01*
X149843738Y-140805771D02*
X149938976Y-140853390D01*
X149938976Y-140853390D02*
X149986595Y-140901009D01*
X149986595Y-140901009D02*
X150034214Y-140996247D01*
X150034214Y-140996247D02*
X150034214Y-141234342D01*
X150034214Y-141234342D02*
X149986595Y-141329580D01*
X149986595Y-141329580D02*
X149938976Y-141377200D01*
X149938976Y-141377200D02*
X149843738Y-141424819D01*
X149843738Y-141424819D02*
X149558024Y-141424819D01*
X149558024Y-141424819D02*
X149462786Y-141377200D01*
X149462786Y-141377200D02*
X149415167Y-141329580D01*
D12*
X131064095Y-141187882D02*
X131064095Y-141997405D01*
X131064095Y-141997405D02*
X131111714Y-142092643D01*
X131111714Y-142092643D02*
X131159333Y-142140263D01*
X131159333Y-142140263D02*
X131254571Y-142187882D01*
X131254571Y-142187882D02*
X131445047Y-142187882D01*
X131445047Y-142187882D02*
X131540285Y-142140263D01*
X131540285Y-142140263D02*
X131587904Y-142092643D01*
X131587904Y-142092643D02*
X131635523Y-141997405D01*
X131635523Y-141997405D02*
X131635523Y-141187882D01*
X132635523Y-142187882D02*
X132064095Y-142187882D01*
X132349809Y-142187882D02*
X132349809Y-141187882D01*
X132349809Y-141187882D02*
X132254571Y-141330739D01*
X132254571Y-141330739D02*
X132159333Y-141425977D01*
X132159333Y-141425977D02*
X132064095Y-141473596D01*
D11*
X152066666Y-129082319D02*
X152066666Y-129796604D01*
X152066666Y-129796604D02*
X152019047Y-129939461D01*
X152019047Y-129939461D02*
X151923809Y-130034700D01*
X151923809Y-130034700D02*
X151780952Y-130082319D01*
X151780952Y-130082319D02*
X151685714Y-130082319D01*
X152495238Y-129177557D02*
X152542857Y-129129938D01*
X152542857Y-129129938D02*
X152638095Y-129082319D01*
X152638095Y-129082319D02*
X152876190Y-129082319D01*
X152876190Y-129082319D02*
X152971428Y-129129938D01*
X152971428Y-129129938D02*
X153019047Y-129177557D01*
X153019047Y-129177557D02*
X153066666Y-129272795D01*
X153066666Y-129272795D02*
X153066666Y-129368033D01*
X153066666Y-129368033D02*
X153019047Y-129510890D01*
X153019047Y-129510890D02*
X152447619Y-130082319D01*
X152447619Y-130082319D02*
X153066666Y-130082319D01*
X138639405Y-132169819D02*
X138639405Y-131169819D01*
X138639405Y-131169819D02*
X138877500Y-131169819D01*
X138877500Y-131169819D02*
X139020357Y-131217438D01*
X139020357Y-131217438D02*
X139115595Y-131312676D01*
X139115595Y-131312676D02*
X139163214Y-131407914D01*
X139163214Y-131407914D02*
X139210833Y-131598390D01*
X139210833Y-131598390D02*
X139210833Y-131741247D01*
X139210833Y-131741247D02*
X139163214Y-131931723D01*
X139163214Y-131931723D02*
X139115595Y-132026961D01*
X139115595Y-132026961D02*
X139020357Y-132122200D01*
X139020357Y-132122200D02*
X138877500Y-132169819D01*
X138877500Y-132169819D02*
X138639405Y-132169819D01*
X140163214Y-132169819D02*
X139591786Y-132169819D01*
X139877500Y-132169819D02*
X139877500Y-131169819D01*
X139877500Y-131169819D02*
X139782262Y-131312676D01*
X139782262Y-131312676D02*
X139687024Y-131407914D01*
X139687024Y-131407914D02*
X139591786Y-131455533D01*
X138639405Y-137114819D02*
X138639405Y-136114819D01*
X138639405Y-136114819D02*
X138877500Y-136114819D01*
X138877500Y-136114819D02*
X139020357Y-136162438D01*
X139020357Y-136162438D02*
X139115595Y-136257676D01*
X139115595Y-136257676D02*
X139163214Y-136352914D01*
X139163214Y-136352914D02*
X139210833Y-136543390D01*
X139210833Y-136543390D02*
X139210833Y-136686247D01*
X139210833Y-136686247D02*
X139163214Y-136876723D01*
X139163214Y-136876723D02*
X139115595Y-136971961D01*
X139115595Y-136971961D02*
X139020357Y-137067200D01*
X139020357Y-137067200D02*
X138877500Y-137114819D01*
X138877500Y-137114819D02*
X138639405Y-137114819D01*
X139591786Y-136210057D02*
X139639405Y-136162438D01*
X139639405Y-136162438D02*
X139734643Y-136114819D01*
X139734643Y-136114819D02*
X139972738Y-136114819D01*
X139972738Y-136114819D02*
X140067976Y-136162438D01*
X140067976Y-136162438D02*
X140115595Y-136210057D01*
X140115595Y-136210057D02*
X140163214Y-136305295D01*
X140163214Y-136305295D02*
X140163214Y-136400533D01*
X140163214Y-136400533D02*
X140115595Y-136543390D01*
X140115595Y-136543390D02*
X139544167Y-137114819D01*
X139544167Y-137114819D02*
X140163214Y-137114819D01*
X149081833Y-132124819D02*
X148748500Y-131648628D01*
X148510405Y-132124819D02*
X148510405Y-131124819D01*
X148510405Y-131124819D02*
X148891357Y-131124819D01*
X148891357Y-131124819D02*
X148986595Y-131172438D01*
X148986595Y-131172438D02*
X149034214Y-131220057D01*
X149034214Y-131220057D02*
X149081833Y-131315295D01*
X149081833Y-131315295D02*
X149081833Y-131458152D01*
X149081833Y-131458152D02*
X149034214Y-131553390D01*
X149034214Y-131553390D02*
X148986595Y-131601009D01*
X148986595Y-131601009D02*
X148891357Y-131648628D01*
X148891357Y-131648628D02*
X148510405Y-131648628D01*
X150034214Y-132124819D02*
X149462786Y-132124819D01*
X149748500Y-132124819D02*
X149748500Y-131124819D01*
X149748500Y-131124819D02*
X149653262Y-131267676D01*
X149653262Y-131267676D02*
X149558024Y-131362914D01*
X149558024Y-131362914D02*
X149462786Y-131410533D01*
D13*
X143298500Y-140235000D02*
X140613500Y-140235000D01*
X140613500Y-142155000D02*
X143298500Y-142155000D01*
X140613500Y-140235000D02*
X140613500Y-142155000D01*
X140613500Y-145028000D02*
X140613500Y-146948000D01*
X140613500Y-146948000D02*
X143298500Y-146948000D01*
X143298500Y-145028000D02*
X140613500Y-145028000D01*
X146481436Y-149125000D02*
X146935564Y-149125000D01*
X146481436Y-150595000D02*
X146935564Y-150595000D01*
X128210000Y-133667500D02*
X128210000Y-151507500D01*
X128210000Y-133667500D02*
X130870000Y-133667500D01*
X128210000Y-151507500D02*
X130870000Y-151507500D01*
X129540000Y-131067500D02*
X130870000Y-131067500D01*
X130870000Y-131067500D02*
X130870000Y-132397500D01*
X130870000Y-133667500D02*
X130870000Y-151507500D01*
X146481436Y-135790000D02*
X146935564Y-135790000D01*
X146481436Y-137260000D02*
X146935564Y-137260000D01*
X146481436Y-144938000D02*
X146935564Y-144938000D01*
X146481436Y-146408000D02*
X146935564Y-146408000D01*
X143298500Y-149305000D02*
X140613500Y-149305000D01*
X140613500Y-151225000D02*
X143298500Y-151225000D01*
X140613500Y-149305000D02*
X140613500Y-151225000D01*
X146481436Y-140235000D02*
X146935564Y-140235000D01*
X146481436Y-141705000D02*
X146935564Y-141705000D01*
D14*
X132882000Y-143032000D02*
X132882000Y-140432000D01*
X137882000Y-140432000D02*
X132882000Y-140432000D01*
X137882000Y-143032000D02*
X132882000Y-143032000D01*
X137882000Y-143032000D02*
X137882000Y-140432000D01*
X138201400Y-139903200D02*
X138201400Y-140182600D01*
X138836400Y-139903200D02*
X138836400Y-140182600D01*
X138108201Y-139415288D02*
G75*
G02*
X138937999Y-139369800I423399J-132312D01*
G01*
X138480800Y-139903200D02*
G75*
G02*
X137922000Y-139903200I-279400J0D01*
G01*
X137922000Y-139903200D02*
G75*
G02*
X138480800Y-139903200I279400J0D01*
G01*
X139115800Y-139903200D02*
G75*
G02*
X138557000Y-139903200I-279400J0D01*
G01*
X138557000Y-139903200D02*
G75*
G02*
X139115800Y-139903200I279400J0D01*
G01*
D13*
X151070000Y-133667500D02*
X151070000Y-151507500D01*
X151070000Y-133667500D02*
X153730000Y-133667500D01*
X151070000Y-151507500D02*
X153730000Y-151507500D01*
X152400000Y-131067500D02*
X153730000Y-131067500D01*
X153730000Y-131067500D02*
X153730000Y-132397500D01*
X153730000Y-133667500D02*
X153730000Y-151507500D01*
X140613500Y-130755000D02*
X140613500Y-132675000D01*
X140613500Y-132675000D02*
X143298500Y-132675000D01*
X143298500Y-130755000D02*
X140613500Y-130755000D01*
X143298500Y-135700000D02*
X140613500Y-135700000D01*
X140613500Y-137620000D02*
X143298500Y-137620000D01*
X140613500Y-135700000D02*
X140613500Y-137620000D01*
X146481436Y-132405000D02*
X146935564Y-132405000D01*
X146481436Y-130935000D02*
X146935564Y-130935000D01*
M02*
